<svg version="1.2" xmlns="http://www.w3.org/2000/svg" viewBox="0 0 1000 440" width="1000" height="440">
	<style>
		.s0 { fill: #808080;stroke: #000000;stroke-miterlimit:100;stroke-width: 4.6 } 
		.s1 { fill: #ff0000;stroke: #000000;stroke-miterlimit:100;stroke-width: 2 } 
		.s2 { fill: #00ff00;stroke: #000000;stroke-miterlimit:100;stroke-width: 2 } 
		.s3 { fill: #ffffff } 
	</style>
	<path id="Background" fill-rule="evenodd" class="s0" d="m1000 440h-1000v-440h1000z"/>
	<path id="Shape 2 copy 2" class="s1" d="m20 200h-20v-40h20zm0 0h-20v-40h20z"/>
	<path id="Shape 2 copy 3" class="s1" d="m20 280h-20v-40h20zm0 0h-20v-40h20z"/>
	<path id="Shape 2 copy 9" class="s2" d="m1000 280h-20v-40h20zm0 0h-20v-40h20z"/>
	<path id="Shape 2 copy 11" class="s2" d="m900 360h-20v-40h20zm0 0h-20v-40h20z"/>
	<path id="Shape 2 copy 12" class="s2" d="m900 120h-20v-40h20zm0 0h-20v-40h20z"/>
	<path id="Shape 2 copy 10" class="s2" d="m1000 200h-20v-40h20zm0 0h-20v-40h20z"/>
	<path id="Quantum Encoder" class="s3" d="m382.1 220.1q0-4.5 2.4-6.6 2.4-2.1 7.1-2.1 4.6 0 7 2 2.4 2 2.4 6.4 0 2.4-0.9 3.9-0.7 1-1.4 1.9h1.8q0.5 0 0.8 0.3 0.4 0.3 0.4 0.8v0.9q0 0.5-0.4 0.8-0.3 0.3-0.8 0.3h-9q-4.6 0-7-2.1-2.4-2.1-2.4-6.5zm9.4 5.5q5.1 0 5.1-5.8 0-2.6-1.2-3.9-1.2-1.3-3.8-1.3-2.7 0-3.9 1.4-1.2 1.4-1.2 4.1 0 2.7 1.2 4.1 1.2 1.4 3.8 1.4zm11.3-2.4v-6.7q0-0.3 0.2-0.5 0.3-0.2 0.6-0.2h2.6q0.3 0 0.5 0.2 0.2 0.2 0.2 0.5v6.7q0 2.8 2.2 2.8 1.5 0 3.2-1.7v-7.8q0-0.3 0.2-0.5 0.2-0.2 0.5-0.2h2.6q0.3 0 0.5 0.2 0.2 0.2 0.2 0.5v11.4q0 0.3-0.2 0.5-0.2 0.2-0.5 0.2h-2.6q-0.3 0-0.5-0.2-0.2-0.2-0.2-0.5v-0.8q-2 1.7-4.3 1.7-2.3 0-3.7-1.3-1.5-1.4-1.5-4.3zm17.9 4.6q-1.6-1.1-1.6-3.1 0-2 1.6-3 1.5-1.1 4-1.1h3.8q0-1.3-0.5-1.9-0.6-0.5-2-0.5-1.5 0-2.1 0.7-0.5 0.7-1.4 0.7h-1.7q-0.3 0-0.5-0.2-0.2-0.2-0.2-0.5 0-3.4 6.3-3.4 2.8 0 4.5 1.3 1.7 1.2 1.7 3.8v7.3q0 0.3-0.2 0.5-0.2 0.2-0.5 0.2h-2.3q-0.3 0-0.5-0.2-0.2-0.2-0.2-0.5v-0.4q-1.8 1.3-4.3 1.3-2.4 0-3.9-1zm4.3-4.5q-0.9 0-1.4 0.4-0.4 0.4-0.4 1 0 0.7 0.5 1.1 0.5 0.4 1.4 0.4 1.8 0 3.4-1.1v-1.8zm9.9 4.6v-11.4q0-0.3 0.2-0.5 0.2-0.2 0.6-0.2h2.6q0.3 0 0.5 0.2 0.2 0.2 0.2 0.5v0.7q2-1.7 4.3-1.7 2.3 0 3.7 1.4 1.4 1.4 1.4 4.3v6.7q0 0.3-0.2 0.5-0.2 0.2-0.5 0.2h-2.6q-0.3 0-0.5-0.2-0.2-0.2-0.2-0.5v-6.7q0-2.8-2.3-2.8-1.4 0-3.1 1.6v7.9q0 0.3-0.2 0.5-0.2 0.2-0.5 0.2h-2.6q-0.4 0-0.6-0.2-0.2-0.2-0.2-0.5zm23.2-1.8l1.6-0.2h0.4q0.3 0 0.5 0.2 0.2 0.2 0.2 0.5v1.3q0 0.2-0.2 0.5-0.2 0.2-0.5 0.2-1.2 0.2-3.1 0.2-5.1 0-5.1-5.2v-11.1q0-0.3 0.2-0.5 0.2-0.2 0.6-0.2h2.6q0.3 0 0.5 0.2 0.2 0.2 0.2 0.5v3.9h3.3q0.3 0 0.5 0.2 0.2 0.2 0.2 0.6v1.3q0 0.4-0.2 0.6-0.2 0.2-0.5 0.2h-3.3v4.3q0 1.2 0.6 1.8 0.5 0.7 1.5 0.7zm3.8-2.9v-6.7q0-0.3 0.2-0.5 0.2-0.2 0.6-0.2h2.6q0.3 0 0.5 0.2 0.2 0.2 0.2 0.5v6.7q0 2.8 2.2 2.8 1.5 0 3.2-1.7v-7.8q0-0.3 0.2-0.5 0.2-0.2 0.5-0.2h2.6q0.3 0 0.5 0.2 0.2 0.2 0.2 0.5v11.4q0 0.3-0.2 0.5-0.2 0.2-0.5 0.2h-2.6q-0.3 0-0.5-0.2-0.2-0.2-0.2-0.5v-0.8q-2 1.7-4.3 1.7-2.3 0-3.7-1.3-1.5-1.4-1.5-4.3zm17 4.7v-11.4q0-0.3 0.2-0.5 0.2-0.2 0.6-0.2h2.6q0.3 0 0.5 0.2 0.2 0.2 0.2 0.5v0.7q0.8-0.8 1.6-1.2 0.9-0.5 2-0.5 2.7 0 4.2 2.3 2.1-2.3 4.4-2.3 2.3 0 3.6 1.4 1.4 1.4 1.4 4.3v6.7q0 0.3-0.2 0.5-0.2 0.2-0.5 0.2h-2.7q-0.3 0-0.5-0.2-0.2-0.2-0.2-0.5v-6.7q0-2.9-2-2.8-1.3 0-2.6 1.8 0.1 0.5 0.1 1v6.7q0 0.3-0.2 0.5-0.2 0.2-0.5 0.2h-2.6q-0.4 0-0.6-0.2-0.2-0.2-0.2-0.5v-6.7q0-2.9-2-2.8-1.3 0-2.5 1.6v7.9q0 0.3-0.2 0.5-0.2 0.2-0.5 0.2h-2.6q-0.4 0-0.6-0.2-0.2-0.2-0.2-0.5zm32.3-0.4v-14.6q0-0.5 0.3-0.8 0.3-0.3 0.8-0.3h13.5q0.5 0 0.8 0.3 0.3 0.4 0.3 0.8v1.1q0 0.5-0.3 0.8-0.3 0.3-0.8 0.3h-10.2v3.4h8.8q0.4 0 0.8 0.3 0.3 0.4 0.3 0.8v1.1q0 0.5-0.3 0.8-0.4 0.3-0.8 0.3h-8.8v3.5h10.2q0.4 0 0.7 0.3 0.4 0.3 0.4 0.8v1.1q0 0.5-0.4 0.8-0.3 0.3-0.8 0.3h-13.4q-0.5 0-0.8-0.3-0.3-0.3-0.3-0.8zm17.7 0.4v-11.4q0-0.3 0.2-0.5 0.2-0.2 0.6-0.2h2.6q0.3 0 0.5 0.2 0.2 0.2 0.2 0.5v0.7q2-1.7 4.3-1.7 2.3 0 3.7 1.4 1.4 1.4 1.4 4.3v6.7q0 0.3-0.2 0.5-0.2 0.2-0.5 0.2h-2.6q-0.3 0-0.5-0.2-0.2-0.2-0.2-0.5v-6.7q0-2.8-2.3-2.8-1.4 0-3.1 1.6v7.9q0 0.3-0.2 0.5-0.2 0.2-0.5 0.2h-2.6q-0.4 0-0.6-0.2-0.2-0.2-0.2-0.5zm22.3 0.9q-3.3 0-5.2-1.7-1.8-1.6-1.8-4.9 0-3.3 1.8-5 1.8-1.7 5.1-1.7 3.2 0 5 1.1 1.7 1 1.7 3 0 0.3-0.2 0.5-0.2 0.2-0.5 0.2h-1.8q-0.8 0-1.3-0.8-0.7-1.1-2.5-1.1-1.7 0-2.4 0.9-0.7 0.9-0.7 2.9 0 2 0.7 2.9 0.7 0.9 2.5 0.9 1.8 0 2.5-1.1 0.6-0.9 1.4-0.9h1.7q0.3 0 0.5 0.3 0.2 0.2 0.2 0.5 0 2-1.7 3-1.8 1-5 1zm9.8-1.7q-1.8-1.6-1.8-4.9 0-3.3 1.8-5 1.9-1.7 5.3-1.7 3.4 0 5.3 1.7 1.8 1.7 1.8 5 0 3.3-1.8 4.9-1.9 1.7-5.3 1.7-3.4 0-5.3-1.7zm3-8q-0.7 1-0.7 3.1 0 2.1 0.7 3 0.7 1 2.3 1 1.6 0 2.3-1 0.7-0.9 0.7-3 0-2.1-0.7-3.1-0.7-0.9-2.3-0.9-1.6 0-2.3 0.9zm17 9.7q-2.5 0-4.1-1.7-1.7-1.7-1.7-4.9 0-3.2 1.7-5 1.7-1.7 4.6-1.7 1.5 0 3.4 0.6v-3.6q0-0.3 0.2-0.5 0.2-0.2 0.5-0.2h2.6q0.3 0 0.5 0.2 0.2 0.2 0.2 0.5v15.4q0 0.3-0.2 0.5-0.2 0.2-0.5 0.2h-2.2q-0.3 0-0.5-0.2-0.2-0.2-0.2-0.5v-0.4q-1.9 1.3-4.3 1.3zm1.3-10.4q-1.6 0-2.2 0.9-0.7 0.9-0.7 2.9 0 2 0.6 2.9 0.7 0.9 1.9 0.9 1.3 0 3-1v-6.2q-1.5-0.4-2.6-0.4zm10.7 8.7q-1.8-1.7-1.8-4.9 0-3.2 1.8-4.9 1.8-1.8 5.1-1.8 3.2 0 5 1.7 1.8 1.7 1.8 4.8v0.7q0 0.3-0.2 0.5-0.2 0.2-0.5 0.2h-8.9q0.2 1.5 0.9 2.1 0.7 0.7 2.2 0.7 1.6 0 2.2-0.7 0.6-0.7 1.4-0.7h1.7q0.4 0 0.6 0.2 0.2 0.2 0.2 0.5 0 3.3-6.4 3.3-3.3 0-5.1-1.7zm2.3-6.2h5.5q-0.1-2.7-2.7-2.7-2.6 0-2.8 2.7zm20.9-2.2h-0.4-1.8q-1.6 0-3 1.7v7.5q0 0.3-0.2 0.5-0.2 0.2-0.5 0.2h-2.6q-0.4 0-0.6-0.2-0.2-0.2-0.2-0.5v-11.4q0-0.3 0.2-0.5 0.2-0.2 0.6-0.2h2.6q0.3 0 0.5 0.2 0.2 0.2 0.2 0.5v0.7q1.2-0.8 2.3-1.3 1.1-0.4 2.9-0.4 0.3 0 0.5 0.2 0.2 0.2 0.2 0.5v1.8q0 0.3-0.2 0.5-0.2 0.2-0.5 0.2z"/>
</svg>