<svg version="1.2" xmlns="http://www.w3.org/2000/svg" viewBox="0 0 120 280" width="120" height="280">
	<style>
		.s0 { fill: #808080;stroke: #000000;stroke-miterlimit:100;stroke-width: 4.6 } 
		.s1 { fill: #ff0000;stroke: #000000;stroke-miterlimit:100;stroke-width: 2 } 
		.s2 { fill: #ffffff } 
	</style>
	<path id="Background" fill-rule="evenodd" class="s0" d="m0 280v-280h120v280z"/>
	<path id="Shape 2 copy 2" class="s1" d="m40 20v-20h40v20zm0 0v-20h40v20z"/>
	<path id="Miner" class="s2" d="m23.7 145.9v-14.6q0-0.4 0.3-0.8 0.3-0.3 0.8-0.3h4.7q0.5 0 0.9 0.3 0.4 0.4 0.6 0.8l3.4 10 3.5-10q0.1-0.4 0.5-0.8 0.4-0.3 0.9-0.3h4.8q0.4 0 0.7 0.3 0.3 0.4 0.3 0.8v14.6q0 0.5-0.3 0.8-0.3 0.3-0.8 0.3h-2.1q-0.4 0-0.8-0.3-0.3-0.3-0.3-0.8v-11.5l-4.1 11.5q-0.2 0.5-0.6 0.8-0.4 0.3-0.9 0.3h-1.6q-0.5 0-0.9-0.3-0.4-0.3-0.6-0.8l-4.1-11.5v11.5q0 0.5-0.3 0.8-0.3 0.3-0.8 0.3h-2.1q-0.5 0-0.8-0.3-0.3-0.3-0.3-0.8zm24.7-14.2v-0.4q0-0.6 0.4-1 0.4-0.3 1-0.3h1.4q0.7 0 1 0.3 0.4 0.4 0.4 1v0.4q0 0.6-0.4 1-0.3 0.4-1 0.4h-1.4q-0.6 0-1-0.4-0.4-0.4-0.4-1zm0.1 14.6v-11.1q0-0.4 0.2-0.6 0.2-0.2 0.5-0.2h2.6q0.3 0 0.5 0.3 0.2 0.2 0.2 0.5v11.1q0 0.3-0.2 0.5-0.2 0.2-0.5 0.2h-2.6q-0.3 0-0.5-0.2-0.2-0.2-0.2-0.5zm6.9 0v-11.4q0-0.3 0.2-0.5 0.3-0.2 0.6-0.2h2.6q0.3 0 0.5 0.2 0.2 0.2 0.2 0.5v0.7q2-1.7 4.3-1.7 2.3 0 3.7 1.4 1.4 1.4 1.4 4.3v6.7q0 0.3-0.2 0.5-0.2 0.2-0.5 0.2h-2.6q-0.3 0-0.5-0.2-0.2-0.2-0.2-0.5v-6.7q0-2.8-2.3-2.8-1.4 0-3.1 1.6v7.9q0 0.3-0.2 0.5-0.2 0.2-0.5 0.2h-2.6q-0.3 0-0.6-0.2-0.2-0.2-0.2-0.5zm17.1-0.8q-1.8-1.7-1.8-4.9 0-3.2 1.8-4.9 1.8-1.8 5.1-1.8 3.2 0 5 1.7 1.8 1.7 1.8 4.8v0.7q0 0.3-0.2 0.5-0.2 0.2-0.5 0.2h-8.8q0.1 1.5 0.8 2.1 0.7 0.7 2.2 0.7 1.6 0 2.2-0.7 0.6-0.7 1.4-0.7h1.7q0.4 0 0.6 0.2 0.2 0.2 0.2 0.5 0 3.3-6.4 3.3-3.3 0-5.1-1.7zm2.3-6.2h5.5q-0.1-2.7-2.7-2.7-2.6 0-2.8 2.7zm20.9-2.2h-0.4-1.8q-1.6 0-3 1.7v7.5q0 0.3-0.2 0.5-0.2 0.2-0.5 0.2h-2.6q-0.4 0-0.6-0.2-0.2-0.2-0.2-0.5v-11.4q0-0.3 0.2-0.5 0.3-0.2 0.6-0.2h2.6q0.3 0 0.5 0.2 0.2 0.2 0.2 0.5v0.7q1.2-0.8 2.3-1.3 1.1-0.4 2.9-0.4 0.3 0 0.5 0.2 0.2 0.2 0.2 0.5v1.8q0 0.3-0.2 0.5-0.2 0.2-0.5 0.2z"/>
</svg>