<svg version="1.2" xmlns="http://www.w3.org/2000/svg" viewBox="0 0 100 200" width="100" height="200">
	<style>
		.s0 { fill: #808080;stroke: #000000;stroke-miterlimit:100;stroke-width: 4.6 } 
		.s1 { fill: #ff0000;stroke: #000000;stroke-miterlimit:100;stroke-width: 2 } 
		.s2 { fill: #00ff00;stroke: #000000;stroke-miterlimit:100;stroke-width: 2 } 
		.s3 { fill: #ffffff } 
	</style>
	<path id="Shape 1" fill-rule="evenodd" class="s0" d="m100 0v200h-100v-200z"/>
	<path id="Shape 2 copy 2" class="s1" d="m30 20v-20h40v20zm0 0v-20h40v20z"/>
	<path id="Shape 2 copy 8" class="s2" d="m30 200v-20h40v20zm0 0v-20h40v20z"/>
	<path id="Smelter" class="s3" d="m9.5 103.8q0-0.5 0.3-0.8 0.4-0.2 0.6-0.2h1.1q0.8 0 1.2 0.9 0.4 0.8 1.8 0.8l3.1 0.1q1.6 0 1.6-1 0-0.8-1.9-1.2-0.9-0.2-1.9-0.4-1-0.2-2-0.5-1-0.3-1.9-0.7-0.8-0.4-1.3-1.1-0.5-0.7-0.5-1.7 0-1.8 1.2-2.7 1.3-1 4.3-1l2.3 0.1q1.8 0 3.2 0.9 1.5 0.9 1.5 2.3 0 0.5-0.4 0.8-0.3 0.2-0.5 0.2h-1.1q-0.8 0-1.2-0.9-0.4-0.8-1.8-0.8l-2.7-0.1q-1.5 0-1.5 1 0 0.6 0.9 0.9 1 0.4 2.4 0.7 1.4 0.2 2.8 0.6 1.4 0.4 2.4 1.2 1 0.9 1 2.2 0 1.8-1.3 2.7-1.2 1-4.3 1l-2.7-0.1q-1.8 0-3.2-0.9-1.5-0.9-1.5-2.3zm14.6 2.7v-8.6q0-0.2 0.1-0.4 0.2-0.1 0.4-0.1h2q0.2 0 0.4 0.1 0.1 0.2 0.1 0.4v0.6q0.7-0.6 1.3-1 0.6-0.3 1.4-0.3 2.1 0 3.1 1.7 1.7-1.7 3.4-1.7 1.7 0 2.7 1 1 1.1 1 3.2v5.1q0 0.2-0.1 0.4-0.2 0.1-0.4 0.1h-2q-0.2 0-0.4-0.1-0.1-0.2-0.1-0.4v-5.1q0-2.1-1.6-2.1-0.9 0-1.9 1.4 0.1 0.3 0.1 0.7v5.1q0 0.2-0.2 0.4-0.1 0.1-0.4 0.1h-1.9q-0.3 0-0.4-0.1-0.2-0.2-0.2-0.4v-5.1q0-2.1-1.5-2.1-1 0-1.9 1.3v5.9q0 0.2-0.1 0.4-0.2 0.1-0.4 0.1h-2q-0.2 0-0.4-0.1-0.1-0.2-0.1-0.4zm18.8-0.6q-1.4-1.3-1.4-3.7 0-2.4 1.4-3.7 1.4-1.3 3.8-1.3 2.4 0 3.7 1.3 1.4 1.2 1.4 3.6v0.5q0 0.2-0.2 0.4-0.1 0.1-0.3 0.1h-6.7q0.1 1.1 0.7 1.6 0.5 0.5 1.7 0.5 1.1 0 1.6-0.5 0.4-0.6 1-0.6h1.3q0.3 0 0.4 0.2 0.2 0.1 0.2 0.4 0 2.5-4.8 2.5-2.5 0-3.8-1.3zm1.7-4.6h4.1q-0.1-2.1-2-2.1-2 0-2.1 2.1zm8.5 5.2v-11.6q0-0.2 0.1-0.3 0.2-0.2 0.4-0.2h2q0.2 0 0.4 0.2 0.1 0.1 0.1 0.3v11.6q0 0.2-0.1 0.4-0.2 0.1-0.4 0.1h-2q-0.2 0-0.4-0.1-0.1-0.2-0.1-0.4zm10.6-1.4l1.2-0.1h0.3q0.2 0 0.4 0.1 0.1 0.2 0.1 0.4v1q0 0.2-0.1 0.3-0.2 0.2-0.4 0.2-0.9 0.2-2.3 0.2-3.8 0-3.8-4v-8.3q0-0.2 0.1-0.3 0.2-0.2 0.4-0.2h2q0.2 0 0.4 0.2 0.1 0.1 0.1 0.3v3h2.5q0.2 0 0.4 0.1 0.1 0.2 0.1 0.4v1.1q0 0.2-0.1 0.3-0.2 0.2-0.4 0.2h-2.5v3.2q0 0.9 0.4 1.4 0.5 0.5 1.2 0.5zm4.2 0.8q-1.4-1.3-1.4-3.7 0-2.4 1.4-3.7 1.4-1.3 3.8-1.3 2.4 0 3.7 1.3 1.4 1.2 1.4 3.6v0.5q0 0.2-0.2 0.4-0.1 0.1-0.3 0.1h-6.7q0.1 1.1 0.7 1.6 0.5 0.5 1.7 0.5 1.1 0 1.6-0.5 0.4-0.6 1-0.6h1.3q0.3 0 0.4 0.2 0.2 0.1 0.2 0.4 0 2.5-4.8 2.5-2.5 0-3.8-1.3zm1.7-4.6h4.1q-0.1-2.1-2-2.1-2 0-2.1 2.1zm15.4-1.7h-0.3l-1.3-0.1q-1.2 0-2.3 1.3v5.7q0 0.2-0.1 0.4-0.2 0.1-0.4 0.1h-2q-0.2 0-0.4-0.1-0.1-0.2-0.1-0.4v-8.6q0-0.2 0.1-0.4 0.2-0.1 0.4-0.1h2q0.2 0 0.4 0.1 0.1 0.2 0.1 0.4v0.6q0.9-0.7 1.7-1 0.9-0.3 2.2-0.3 0.3 0 0.4 0.1 0.2 0.2 0.2 0.4v1.4q0 0.2-0.2 0.4-0.1 0.1-0.4 0.1z"/>
</svg>