<svg xmlns="http://www.w3.org/2000/svg" id="image-placeholder" viewBox="0 0 100 100">
  <path d="M80.716,68.907l-19.768-34.927-14.753,25.931c-.198,.348-.549,.581-.947,.629-.4,.047-.794-.098-1.068-.389l-10.403-11.091-14.493,19.925v11.731h61.432v-11.809Z" style="fill:#a3d4ff"></path>
  <path d="M18.023,83.237h63.953c.696,0,1.26-.564,1.26-1.261V18.023c0-.696-.564-1.26-1.26-1.26H18.023c-.696,0-1.261,.564-1.261,1.26v63.953c0,.696,.564,1.261,1.261,1.261Zm1.26-63.953h61.432V63.788L62.048,30.804c-.224-.395-.642-.639-1.096-.64h-.001c-.453,0-.872,.243-1.096,.637l-15.007,26.377-10.276-10.955c-.257-.274-.621-.423-.998-.396-.375,.023-.72,.213-.941,.517l-13.351,18.354V19.284Zm0,49.701l14.493-19.925,10.403,11.091c.274,.292,.668,.436,1.068,.389,.398-.047,.749-.281,.947-.629l14.753-25.931,19.768,34.927v11.809H19.284v-11.731Z" style="fill:#24497e"></path>
  <path d="M87.815,10.924H12.185c-.696,0-1.26,.564-1.26,1.26V87.815c0,.696,.564,1.261,1.26,1.261H87.815c.696,0,1.26-.564,1.26-1.261V12.185c0-.696-.564-1.26-1.26-1.26Zm-1.261,75.63H13.445V13.445H86.555V86.555Z" style="fill:#24497e"></path>
  <path d="M33.65,32.961c-2.006,0-3.637,1.631-3.637,3.637s1.632,3.637,3.637,3.637,3.637-1.632,3.637-3.637-1.632-3.637-3.637-3.637Z" style="fill:#a3d4ff"></path>
  <path d="M33.65,30.44c-3.396,0-6.158,2.763-6.158,6.158s2.763,6.158,6.158,6.158,6.158-2.763,6.158-6.158-2.763-6.158-6.158-6.158Zm0,9.796c-2.006,0-3.637-1.632-3.637-3.637s1.632-3.637,3.637-3.637,3.637,1.631,3.637,3.637-1.632,3.637-3.637,3.637Z" style="fill:#24497e"></path>
</svg>
