<svg version="1.2" xmlns="http://www.w3.org/2000/svg" viewBox="0 0 320 320" width="320" height="320">
	<style>
		.s0 { fill: #808080;stroke: #000000;stroke-miterlimit:100;stroke-width: 4.6 } 
		.s1 { fill: #ff0000;stroke: #000000;stroke-miterlimit:100;stroke-width: 2 } 
		.s2 { fill: #00ff00;stroke: #000000;stroke-miterlimit:100;stroke-width: 2 } 
		.s3 { fill: #ffffff } 
	</style>
	<path id="Background" fill-rule="evenodd" class="s0" d="m320 0v320h-320v-320z"/>
	<path id="Shape 2 copy 2" class="s1" d="m140 300v20h-40v-20zm0 0v20h-40v-20z"/>
	<path id="Shape 2 copy 3" class="s1" d="m220 300v20h-40v-20zm0 0v20h-40v-20z"/>
	<path id="Shape 2 copy 7" class="s2" d="m220 0v20h-40v-20zm0 0v20h-40v-20z"/>
	<path id="Shape 2 copy 8" class="s2" d="m140 0v20h-40v-20zm0 0v20h-40v-20z"/>
	<path id="Converter" class="s3" aria-label="Converter"  d="m97.9 166q-2.2-2.1-2.2-6.4 0-4.3 2.2-6.4 2.2-2.1 6.5-2.1h2.6q2.7 0 4.7 1.4 2.1 1.4 2.1 3.8 0 0.7-0.4 1-0.4 0.3-0.8 0.3h-1.4q-1.1 0-1.7-1.3-0.9-1.9-2.9-1.9h-2.1q-2.5 0-3.5 1.1-0.9 1.1-0.9 4.1 0 3 0.9 4.1 1 1.1 3.5 1.1h2.4q2 0 2.8-1.9 0.6-1.3 1.7-1.3h1.4q0.6 0 0.9 0.4 0.3 0.5 0.3 0.9 0 2.4-2 3.8-2.1 1.4-4.7 1.4h-2.9q-4.3 0-6.5-2.1zm19.6 0.5q-1.8-1.6-1.8-4.9 0-3.3 1.8-5 1.9-1.7 5.3-1.7 3.4 0 5.3 1.7 1.8 1.7 1.8 5 0 3.3-1.8 4.9-1.9 1.7-5.3 1.7-3.4 0-5.3-1.7zm3-8q-0.7 1-0.7 3.1 0 2.1 0.7 3 0.7 1 2.3 1 1.6 0 2.3-1 0.7-0.9 0.7-3 0-2.1-0.7-3.1-0.7-0.9-2.3-0.9-1.6 0-2.3 0.9zm10.9 8.8v-11.4q0-0.3 0.2-0.5 0.3-0.2 0.6-0.2h2.6q0.3 0 0.5 0.2 0.2 0.2 0.2 0.5v0.7q2-1.7 4.3-1.7 2.3 0 3.7 1.4 1.4 1.4 1.4 4.3v6.7q0 0.3-0.2 0.5-0.2 0.2-0.5 0.2h-2.6q-0.3 0-0.5-0.2-0.2-0.2-0.2-0.5v-6.7q0-2.8-2.3-2.8-1.4 0-3.1 1.6v7.9q0 0.3-0.2 0.5-0.2 0.2-0.5 0.2h-2.6q-0.3 0-0.6-0.2-0.2-0.2-0.2-0.5zm15.4-12.1h2.3q0.5 0 0.9 0.2 0.5 0.3 0.7 0.8l3.2 7.3 3.2-7.3q0.1-0.5 0.6-0.8 0.4-0.2 0.9-0.2h2.3q0.4 0 0.5 0.3 0.1 0.1 0.1 0.3 0 0.1-0.1 0.4l-5.1 10.8q-0.2 0.4-0.6 0.7-0.5 0.3-1 0.3h-1.7q-0.5 0-0.9-0.3-0.5-0.3-0.7-0.7l-5-10.8q-0.2-0.3-0.2-0.4 0-0.6 0.6-0.6zm17.7 11.3q-1.8-1.7-1.8-4.9 0-3.2 1.8-4.9 1.8-1.8 5.1-1.8 3.2 0 5 1.7 1.8 1.7 1.8 4.8v0.7q0 0.3-0.2 0.5-0.2 0.2-0.5 0.2h-8.8q0.1 1.5 0.8 2.1 0.7 0.7 2.2 0.7 1.6 0 2.2-0.7 0.6-0.7 1.4-0.7h1.7q0.4 0 0.6 0.2 0.2 0.2 0.2 0.5 0 3.3-6.4 3.3-3.3 0-5.1-1.7zm2.3-6.2h5.5q-0.1-2.7-2.7-2.7-2.6 0-2.8 2.7zm20.9-2.2h-0.4-1.8q-1.6 0-3 1.7v7.5q0 0.3-0.2 0.5-0.2 0.2-0.5 0.2h-2.6q-0.4 0-0.6-0.2-0.2-0.2-0.2-0.5v-11.4q0-0.3 0.2-0.5 0.3-0.2 0.6-0.2h2.6q0.3 0 0.5 0.2 0.2 0.2 0.2 0.5v0.7q1.2-0.8 2.3-1.3 1.1-0.4 2.9-0.4 0.3 0 0.5 0.2 0.2 0.2 0.2 0.5v1.8q0 0.3-0.2 0.5-0.2 0.2-0.5 0.2zm8.9 7.4l1.6-0.2h0.4q0.3 0 0.5 0.2 0.2 0.2 0.2 0.5v1.3q0 0.2-0.2 0.5-0.2 0.2-0.5 0.2-1.2 0.2-3.1 0.2-5.1 0-5.1-5.2v-11.1q0-0.3 0.2-0.5 0.3-0.2 0.6-0.2h2.6q0.3 0 0.5 0.2 0.2 0.2 0.2 0.5v3.9h3.3q0.3 0 0.5 0.2 0.2 0.2 0.2 0.6v1.3q0 0.4-0.2 0.6-0.2 0.2-0.5 0.2h-3.3v4.3q0 1.2 0.6 1.8 0.5 0.7 1.5 0.7zm4.9 1q-1.8-1.7-1.8-4.9 0-3.2 1.8-4.9 1.8-1.8 5.1-1.8 3.2 0 5 1.7 1.8 1.7 1.8 4.8v0.7q0 0.3-0.2 0.5-0.2 0.2-0.5 0.2h-8.8q0.1 1.5 0.8 2.1 0.7 0.7 2.2 0.7 1.6 0 2.2-0.7 0.6-0.7 1.4-0.7h1.7q0.4 0 0.6 0.2 0.2 0.2 0.2 0.5 0 3.3-6.4 3.3-3.3 0-5.1-1.7zm2.3-6.2h5.5q-0.1-2.7-2.7-2.7-2.6 0-2.8 2.7zm20.9-2.2h-0.4-1.8q-1.6 0-3 1.7v7.5q0 0.3-0.2 0.5-0.2 0.2-0.5 0.2h-2.6q-0.4 0-0.6-0.2-0.2-0.2-0.2-0.5v-11.4q0-0.3 0.2-0.5 0.3-0.2 0.6-0.2h2.6q0.3 0 0.5 0.2 0.2 0.2 0.2 0.5v0.7q1.2-0.8 2.3-1.3 1.1-0.4 2.9-0.4 0.3 0 0.5 0.2 0.2 0.2 0.2 0.5v1.8q0 0.3-0.2 0.5-0.2 0.2-0.5 0.2z"/>
</svg>