<svg version="1.2" xmlns="http://www.w3.org/2000/svg" viewBox="0 0 280 520" width="280" height="520">
	<style>
		.s0 { fill: #808080;stroke: #000000;stroke-miterlimit:100;stroke-width: 4.6 } 
		.s1 { fill: #ffffff } 
	</style>
	<path id="Background" fill-rule="evenodd" class="s0" d="m280 0v520h-280v-520z"/>
	<path id="The HUB" class="s1" aria-label="The HUB"  d="m82.2 253.4v-1.1q0-0.5 0.4-0.8 0.3-0.3 0.7-0.3h14.9q0.5 0 0.8 0.3 0.3 0.3 0.3 0.8v1.1q0 0.5-0.3 0.8-0.3 0.3-0.8 0.3h-5.2v12.4q0 0.5-0.3 0.8-0.4 0.3-0.8 0.3h-2.2q-0.5 0-0.8-0.3-0.3-0.3-0.3-0.8v-12.4h-5.3q-0.4 0-0.7-0.3-0.4-0.3-0.4-0.8zm18.2 13.9v-15.4q0-0.3 0.2-0.5 0.3-0.2 0.6-0.2h2.6q0.3 0 0.5 0.2 0.2 0.2 0.2 0.5v4.7q2-1.7 4.3-1.7 2.3 0 3.7 1.4 1.4 1.4 1.4 4.3v6.7q0 0.3-0.2 0.5-0.2 0.2-0.5 0.2h-2.6q-0.3 0-0.5-0.2-0.2-0.2-0.2-0.5v-6.7q0-2.8-2.3-2.8-1.4 0-3.1 1.6v7.9q0 0.3-0.2 0.5-0.2 0.2-0.5 0.2h-2.6q-0.3 0-0.6-0.2-0.2-0.2-0.2-0.5zm18.1-0.8q-1.8-1.7-1.8-4.9 0-3.2 1.8-4.9 1.8-1.8 5.1-1.8 3.2 0 5 1.7 1.8 1.7 1.8 4.8v0.7q0 0.3-0.2 0.5-0.2 0.2-0.5 0.2h-8.8q0.1 1.5 0.8 2.1 0.7 0.7 2.2 0.7 1.6 0 2.2-0.7 0.6-0.7 1.4-0.7h1.7q0.4 0 0.6 0.2 0.2 0.2 0.2 0.5 0 3.3-6.4 3.3-3.3 0-5.1-1.7zm2.3-6.2h5.5q-0.1-2.7-2.7-2.7-2.6 0-2.8 2.7zm19.9 6.6v-14.6q0-0.4 0.3-0.8 0.3-0.3 0.8-0.3h2.2q0.4 0 0.8 0.3 0.3 0.4 0.3 0.8v5.3h8.1v-5.3q0-0.4 0.3-0.8 0.3-0.3 0.8-0.3h2.1q0.5 0 0.8 0.3 0.4 0.4 0.4 0.8v14.6q0 0.5-0.4 0.8-0.3 0.3-0.8 0.3h-2.1q-0.5 0-0.8-0.3-0.3-0.3-0.3-0.8v-6h-8.1v6q0 0.5-0.3 0.8-0.4 0.3-0.8 0.3h-2.2q-0.4 0-0.8-0.3-0.3-0.3-0.3-0.8zm19.7-5.5v-9.1q0-0.4 0.4-0.8 0.3-0.3 0.8-0.3h2.2q0.4 0 0.7 0.3 0.4 0.4 0.4 0.8v9.1q0 1.7 0.7 2.5 0.8 0.9 2.4 0.9h1.8q1.6 0 2.4-0.9 0.7-0.8 0.7-2.5v-9.1q0-0.4 0.3-0.8 0.4-0.3 0.8-0.3h2.2q0.5 0 0.8 0.3 0.3 0.4 0.3 0.8v9.1q0 3.2-1.8 4.9-1.9 1.8-5.6 1.8h-2.1q-3.6 0-5.5-1.8-1.9-1.7-1.9-4.9zm20.3 5.5v-14.6q0-0.4 0.3-0.8 0.3-0.3 0.8-0.3h9.5q3.5 0 5.2 2 0.9 1.1 0.9 2.9 0 1.7-1.6 3 2.3 1.2 2.3 3.7 0 2.6-1.8 3.9-1.8 1.3-4.4 1.3h-10.1q-0.5 0-0.8-0.3-0.3-0.3-0.3-0.8zm4.4-6.1v4h6.7q0.9 0 1.4-0.5 0.5-0.5 0.5-1.5 0-0.9-0.5-1.5-0.5-0.5-1.4-0.5zm0-6.4v3.3h6.3q0.7 0 1.1-0.4 0.5-0.5 0.5-1.2 0-0.8-0.5-1.3-0.4-0.4-1.1-0.4z"/>
</svg>