<svg version="1.2" xmlns="http://www.w3.org/2000/svg" viewBox="0 0 1080 1080" width="1080" height="1080">
	<style>
		.s0 { fill: #808080;stroke: #000000;stroke-miterlimit:100;stroke-width: 4.6 } 
		.s1 { fill: #00ff00;stroke: #000000;stroke-miterlimit:100;stroke-width: 2 } 
		.s2 { fill: #ffffff } 
	</style>
	<path id="Shape 1" fill-rule="evenodd" class="s0" d="m0 1080v-1080h1080v1080z"/>
	<path id="Shape 2 copy 11" class="s1" d="m120 940h20v-40h-20zm0 0h20v-40h-20z"/>
	<path id="Shape 2 copy 12" class="s1" d="m120 880h20v-40h-20zm0 0h20v-40h-20z"/>
	<path id="Shape 2 copy 13" class="s1" d="m120 820h20v-40h-20zm0 0h20v-40h-20z"/>
	<path id="Shape 2 copy 14" class="s1" d="m940 880h20v-40h-20zm0 0h20v-40h-20z"/>
	<path id="Shape 2 copy 15" class="s1" d="m940 940h20v-40h-20zm0 0h20v-40h-20z"/>
	<path id="Shape 2 copy 16" class="s1" d="m940 820h20v-40h-20zm0 0h20v-40h-20z"/>
	<path id="Space Elevator" class="s2" d="m147.9 546.8q0-2.8 1.6-3.9 1.6-1.3 3.2-1.3h5.6q4.2 0 6.4 4.6 2.2 4.6 9.9 4.6l16.4 0.4q8.2 0 8.2-5.4 0-4.1-10-6.5-4.5-1-10-2.1-5.4-1-10.8-2.6-5.4-1.6-9.9-3.8-4.5-2.1-7.3-5.9-2.7-3.8-2.7-8.9 0-9.4 6.7-14.5 6.7-5.1 23-5.1l11.9 0.3q9.6 0 17.3 5 7.8 4.9 7.8 12.3 0 2.8-1.7 4-1.6 1.2-3.1 1.2h-5.6q-4.2 0-6.4-4.6-2.2-4.6-9.9-4.6l-14.1-0.3q-8.3 0-8.3 5.4 0 2.9 5.2 4.8 5.3 1.9 12.7 3.3 7.5 1.4 15 3.4 7.5 2.1 12.7 6.7 5.2 4.6 5.2 11.5 0 9.4-6.7 14.5-6.7 5.1-23.1 5.1l-14.2-0.3q-9.6 0-17.3-4.9-7.7-5-7.7-12.4zm77.9 30.1v-61.4q0-1.2 0.8-2 0.8-0.9 2-0.9h9.1q1.2 0 2 0.9 0.8 0.8 0.8 2v1.4q7.4-5.2 17.2-5.2 9.8 0 16.4 6.9 6.6 6.9 6.6 19.8 0 12.9-6.8 19.7-6.8 6.8-18.4 6.8-5.9 0-13.5-2.4v14.4q0 1.3-0.9 2.1-0.8 0.8-2 0.8h-10.5q-1.2 0-2-0.8-0.8-0.8-0.8-2.1zm16.2-49.6v24.4q6 1.9 10.2 1.9 6.4 0 9-3.6 2.8-3.7 2.8-11.7 0-8-2.6-11.6-2.5-3.7-7.7-3.7-5 0-11.7 4.3zm50 33.3q-6.1-4.3-6.1-12.2 0-7.8 6.1-12.1 6.3-4.2 16.1-4.2h15.5q0-5.5-2.3-7.6-2.3-2.2-8.1-2.2-5.7 0-8 2.9-2.3 2.8-5.7 2.8h-7q-1.3 0-2.1-0.8-0.8-0.8-0.8-2.1 0-13.4 25.6-13.4 11.1 0 17.9 5 6.7 5 6.7 15.4v29q0 1.3-0.8 2.1-0.8 0.8-2 0.8h-9.1q-1.3 0-2.1-0.8-0.8-0.8-0.8-2.1v-1.4q-7.4 5.3-17.1 5.3-9.6-0.1-15.9-4.4zm17.2-17.8q-3.3 0-5.2 1.6-1.9 1.6-1.9 4.1 0 2.5 2 4.2 2 1.6 5.6 1.6 7.2 0 13.9-4.2v-7.3zm67.4 22.1q-13.1 0-20.4-6.7-7.4-6.8-7.4-19.8 0-13.2 7.3-19.9 7.3-6.8 20.2-6.8 13 0 19.9 4.1 7 4.1 7 12.2 0 1.3-0.8 2.1-0.8 0.8-2.1 0.8h-7q-3.2 0-5.4-3.5-2.7-4.4-9.8-4.4-6.9 0-9.8 3.6-2.7 3.6-2.7 11.7 0 8.1 2.8 11.7 2.9 3.6 10.1 3.6 7.1 0 9.9-4.4 2.2-3.4 5.4-3.4h7q1.3 0 2 0.8 0.9 0.8 0.9 2 0 8.1-7 12.2-6.9 4.1-20.1 4.1zm39.5-6.8q-7.3-6.8-7.3-19.7 0-12.9 7.3-19.8 7.3-6.9 20.2-6.9 12.9 0 20.1 6.7 7.2 6.7 7.2 19.3v2.7q0 1.2-0.8 2.1-0.8 0.8-2.1 0.8h-35.3q0.5 5.7 3.3 8.4 2.8 2.6 9.1 2.6 6.2 0 8.5-2.8 2.3-2.8 5.7-2.9h7q1.2 0 2 0.9 0.9 0.8 0.9 2 0 13.5-25.7 13.4-12.9 0-20.1-6.8zm9.2-24.7h21.8q-0.5-11.1-10.9-11.1-10.3 0-10.9 11.1zm81.4 26.1v-58.4q0-1.8 1.3-3.1 1.3-1.2 3.1-1.2h54.1q1.8 0 3.1 1.3 1.3 1.3 1.3 3.1v4.4q0 1.9-1.3 3.2-1.3 1.2-3.1 1.2h-40.8v13.7h35.1q1.8 0 3.1 1.3 1.3 1.3 1.3 3.1v4.4q0 1.8-1.3 3.1-1.3 1.3-3.1 1.3h-35.1v13.8h40.7q1.8 0 3 1.3 1.3 1.3 1.3 3.1v4.5q0 1.8-1.3 3.1-1.3 1.3-3.1 1.3h-53.9q-1.8 0-3.1-1.3-1.3-1.3-1.3-3.2zm70.1 1.6v-61.4q0-1.3 0.8-2.1 0.8-0.8 2-0.8h10.5q1.2 0 2 0.8 0.9 0.8 0.9 2.1v61.4q0 1.3-0.9 2.1-0.8 0.8-2 0.8h-10.5q-1.2 0-2-0.8-0.8-0.8-0.8-2.1zm32.3-3q-7.3-6.8-7.3-19.7 0-12.9 7.3-19.8 7.3-6.9 20.2-6.9 12.9 0 20.1 6.7 7.2 6.7 7.2 19.3v2.7q0 1.2-0.8 2.1-0.8 0.8-2.1 0.8h-35.3q0.5 5.7 3.3 8.4 2.8 2.6 9.1 2.6 6.2 0 8.5-2.8 2.3-2.8 5.7-2.9h7q1.2 0 2 0.9 0.9 0.8 0.9 2 0 13.5-25.7 13.4-12.9 0-20.1-6.8zm9.2-24.7h21.8q-0.5-11.1-10.9-11.1-10.3 0-10.9 11.1zm43.1-20.8h9q2 0 3.8 1.2 1.7 1.1 2.5 3l12.8 29.2 12.7-29.2q0.8-1.9 2.6-3 1.8-1.2 3.8-1.2h9q1.7 0 2.2 1.2 0.2 0.5 0.2 1.3 0 0.7-0.5 1.7l-20.2 43.1q-0.9 1.8-2.7 3-1.8 1.1-3.7 1.1h-6.9q-1.9 0-3.7-1.1-1.8-1.2-2.6-3l-20.3-43.1q-0.4-1.1-0.4-1.8 0-2.4 2.4-2.4zm67.6 48q-6.2-4.3-6.2-12.2 0-7.8 6.2-12.1 6.3-4.2 16.1-4.2h15.5q0-5.5-2.3-7.6-2.3-2.2-8.1-2.2-5.7 0-8 2.9-2.3 2.8-5.7 2.8h-7q-1.3 0-2.1-0.8-0.8-0.8-0.8-2.1 0-13.4 25.5-13.4 11.2 0 18 5 6.7 5 6.7 15.4v29q0 1.3-0.8 2.1-0.8 0.8-2.1 0.8h-9q-1.3 0-2.1-0.8-0.8-0.8-0.8-2.1v-1.4q-7.4 5.3-17.1 5.3-9.6-0.1-15.9-4.4zm17.2-17.8q-3.3 0-5.2 1.6-1.9 1.6-1.9 4.1 0 2.5 2 4.2 2 1.6 5.6 1.6 7.2 0 13.9-4.2v-7.3zm67 11l6.4-0.5h1.8q1.2 0 2 0.8 0.9 0.8 0.9 2v5q0 1.1-0.9 1.9-0.8 0.8-2 1-4.8 0.9-12.5 0.9-20.2 0-20.2-21.1v-44.1q0-1.3 0.8-2.1 0.9-0.8 2.1-0.8h10.5q1.2 0 2 0.8 0.9 0.8 0.9 2.1v15.6h13q1.3 0 2.1 0.8 0.8 0.8 0.8 2.1v5.6q0 1.2-0.8 2-0.8 0.8-2.1 0.8h-13v17.2q0 4.8 2.2 7.5 2.3 2.5 6 2.5zm23 4.4q-7.4-6.8-7.4-19.9 0-13.2 7.4-19.9 7.3-6.7 21-6.7 13.7 0 21 6.7 7.3 6.7 7.3 19.9 0 13.1-7.3 19.9-7.3 6.7-21 6.7-13.7 0-21-6.7zm11.8-32.1q-2.9 3.8-2.9 12.2 0 8.3 2.9 12.2 2.9 3.8 9.2 3.8 6.2 0 9.1-3.8 3-3.9 3-12.2 0-8.4-3-12.2-2.9-3.8-9.1-3.8-6.3 0-9.2 3.8zm82.8-1.6h-1.5l-7.2-0.2q-6.4 0-12.1 6.9v29.9q0 1.3-0.9 2.1-0.8 0.8-2 0.8h-10.5q-1.3 0-2.1-0.8-0.8-0.8-0.8-2.1v-45.6q0-1.2 0.8-2 0.9-0.9 2.1-0.9h10.5q1.3 0 2.1 0.9 0.8 0.8 0.8 2v3q4.7-3.5 9.2-5.1 4.4-1.7 11.6-1.7 1.2 0 2 0.8 0.9 0.8 0.9 2v7.2q0 1.2-0.9 2-0.8 0.8-2 0.8z"/>
</svg>