<svg version="1.2" xmlns="http://www.w3.org/2000/svg" viewBox="0 0 180 200" width="180" height="200">
	<style>
		.s0 { fill: #808080;stroke: #000000;stroke-miterlimit:100;stroke-width: 4.6 } 
		.s1 { fill: #ff0000;stroke: #000000;stroke-miterlimit:100;stroke-width: 2 } 
		.s2 { fill: #00ff00;stroke: #000000;stroke-miterlimit:100;stroke-width: 2 } 
		.s3 { fill: #ffffff } 
	</style>
	<path id="Shape 1" fill-rule="evenodd" class="s0" d="m0 0h180v200h-180z"/>
	<path id="Shape 2 copy 2" class="s1" d="m160 120h20v40h-20zm0 0h20v40h-20z"/>
	<path id="Shape 2 copy 8" class="s2" d="m0 40h20v40h-20zm0 0h20v40h-20z"/>
	<path id="Shape 2 copy 9" class="s2" d="m0 120h20v40h-20zm0 0h20v40h-20z"/>
	<path id="Foundry" class="s3" d="m37.7 104.9v-14.6q0-0.5 0.3-0.8 0.3-0.3 0.8-0.3h13.5q0.5 0 0.8 0.3 0.3 0.4 0.3 0.8v1.1q0 0.5-0.3 0.8-0.3 0.3-0.8 0.3h-10.2v4.1h8.3q0.5 0 0.8 0.4 0.3 0.3 0.3 0.7v1.2q0 0.4-0.3 0.7-0.3 0.4-0.8 0.4h-8.3v4.9q0 0.5-0.3 0.8-0.4 0.3-0.8 0.3h-2.2q-0.5 0-0.8-0.3-0.3-0.3-0.3-0.8zm17.8-0.4q-1.8-1.6-1.8-4.9 0-3.3 1.8-5 1.9-1.7 5.3-1.7 3.4 0 5.3 1.7 1.8 1.7 1.8 5 0 3.3-1.8 4.9-1.9 1.7-5.3 1.7-3.4 0-5.3-1.7zm3-8q-0.7 1-0.7 3.1 0 2.1 0.7 3 0.7 1 2.3 1 1.6 0 2.3-1 0.7-0.9 0.7-3 0-2.1-0.7-3.1-0.7-0.9-2.3-0.9-1.6 0-2.3 0.9zm11.9 4.1v-6.7q0-0.3 0.2-0.5 0.3-0.2 0.6-0.2h2.6q0.3 0 0.5 0.2 0.2 0.2 0.2 0.5v6.7q0 2.8 2.2 2.8 1.5 0 3.2-1.7v-7.8q0-0.3 0.2-0.5 0.2-0.2 0.5-0.2h2.6q0.3 0 0.5 0.2 0.2 0.2 0.2 0.5v11.4q0 0.3-0.2 0.5-0.2 0.2-0.5 0.2h-2.6q-0.3 0-0.5-0.2-0.2-0.2-0.2-0.5v-0.8q-2 1.7-4.3 1.7-2.3 0-3.7-1.3-1.5-1.4-1.5-4.3zm16 4.7v-11.4q0-0.3 0.2-0.5 0.3-0.2 0.6-0.2h2.6q0.3 0 0.5 0.2 0.2 0.2 0.2 0.5v0.7q2-1.7 4.3-1.7 2.3 0 3.7 1.4 1.4 1.4 1.4 4.3v6.7q0 0.3-0.2 0.5-0.2 0.2-0.5 0.2h-2.6q-0.3 0-0.5-0.2-0.2-0.2-0.2-0.5v-6.7q0-2.8-2.3-2.8-1.4 0-3.1 1.6v7.9q0 0.3-0.2 0.5-0.2 0.2-0.5 0.2h-2.6q-0.3 0-0.6-0.2-0.2-0.2-0.2-0.5zm21.1 0.9q-2.5 0-4.1-1.7-1.7-1.7-1.7-4.9 0-3.2 1.7-5 1.7-1.7 4.6-1.7 1.5 0 3.4 0.6v-3.6q0-0.3 0.2-0.5 0.2-0.2 0.5-0.2h2.6q0.3 0 0.5 0.2 0.2 0.2 0.2 0.5v15.4q0 0.3-0.2 0.5-0.2 0.2-0.5 0.2h-2.2q-0.3 0-0.5-0.2-0.2-0.2-0.2-0.5v-0.4q-1.9 1.3-4.3 1.3zm1.4-10.4q-1.7 0-2.3 0.9-0.7 0.9-0.7 2.9 0 2 0.6 2.9 0.7 0.9 1.9 0.9 1.3 0 3-1v-6.2q-1.5-0.4-2.5-0.4zm18.8 0.3h-0.4-1.8q-1.6 0-3 1.7v7.5q0 0.3-0.2 0.5-0.2 0.2-0.5 0.2h-2.6q-0.4 0-0.6-0.2-0.2-0.2-0.2-0.5v-11.4q0-0.3 0.2-0.5 0.3-0.2 0.6-0.2h2.6q0.3 0 0.5 0.2 0.2 0.2 0.2 0.5v0.7q1.2-0.8 2.3-1.3 1.1-0.4 2.9-0.4 0.3 0 0.5 0.2 0.2 0.2 0.2 0.5v1.8q0 0.3-0.2 0.5-0.2 0.2-0.5 0.2zm4.8 11.1h0.4l1.6 0.2q1.6 0 2.3-2.4-2 0-3.3-1.2-1.4-1.2-2.3-4.3l-1.8-5.6q0-0.1 0-0.3 0-0.1 0.1-0.3 0.2-0.1 0.5-0.1h2.4q0.3 0 0.7 0.2 0.3 0.2 0.4 0.6l1.5 4.9q0.6 1.8 1.2 2.6 0.6 0.7 1.4 0.7l2.3-8.2q0.1-0.4 0.4-0.6 0.2-0.2 0.6-0.2h2.5q0.2 0 0.4 0.1 0.1 0.2 0.1 0.4 0 0.1 0 0.2l-3.1 10.9q-0.8 2.9-2 4.2-1.2 1.2-3.1 1.2-1.9 0-2.7-0.1-0.8-0.2-1-0.4-0.2-0.2-0.2-0.5v-1.3q0-0.3 0.2-0.5 0.2-0.2 0.5-0.2z"/>
</svg>