<svg version="1.2" xmlns="http://www.w3.org/2000/svg" viewBox="0 0 480 760" width="480" height="760">
	<style>
		.s0 { fill: #808080;stroke: #000000;stroke-miterlimit:100;stroke-width: 4.6 } 
		.s1 { fill: #ff0000;stroke: #000000;stroke-miterlimit:100;stroke-width: 2 } 
		.s2 { fill: #00ff00;stroke: #000000;stroke-miterlimit:100;stroke-width: 2 } 
		.s3 { fill: #ffffff } 
	</style>
	<path id="Shape 1" fill-rule="evenodd" class="s0" d="m480 760h-480v-760h480z"/>
	<path id="Shape 2 copy 2" class="s1" d="m20 680h-20v-40h20zm0 0h-20v-40h20z"/>
	<path id="Shape 2 copy 5" class="s2" d="m480 720h-20v-40h20zm0 0h-20v-40h20z"/>
	<path id="Shape 2 copy 6" class="s2" d="m480 640h-20v-40h20zm0 0h-20v-40h20z"/>
	<path id="Shape 2 copy 7" class="s2" d="m480 560h-20v-40h20zm0 0h-20v-40h20z"/>
	<path id="Particle Accelerator " class="s3" d="m109.55 387.85v-14.6q0-0.4 0.3-0.8 0.3-0.3 0.8-0.3h8.9q7.1 0 7.1 6.5 0 6.6-7.1 6.6h-5.6v2.6q0 0.5-0.3 0.8-0.4 0.3-0.8 0.3h-2.2q-0.5 0-0.8-0.3-0.3-0.3-0.3-0.8zm4.4-12.4v6.4h4.3q1.9 0 3-0.6 1-0.7 1-2.6 0-1.9-1-2.5-1.1-0.7-3-0.7zm15.1 12.7q-1.5-1.1-1.5-3.1 0-2 1.5-3 1.6-1.1 4-1.1h3.9q0-1.3-0.5-1.9-0.6-0.5-2.1-0.5-1.4 0-2 0.7-0.6 0.7-1.4 0.7h-1.7q-0.4 0-0.6-0.2-0.2-0.2-0.2-0.5 0-3.4 6.4-3.4 2.8 0 4.5 1.3 1.7 1.2 1.7 3.8v7.3q0 0.3-0.2 0.5-0.2 0.2-0.5 0.2h-2.3q-0.3 0-0.5-0.2-0.2-0.2-0.2-0.5v-0.4q-1.9 1.3-4.3 1.3-2.4 0-4-1zm4.3-4.5q-0.8 0-1.3 0.4-0.4 0.4-0.4 1 0 0.7 0.5 1.1 0.4 0.4 1.3 0.4 1.9 0 3.5-1.1v-1.8zm20.2-4.6h-0.4-1.8q-1.6 0-3 1.7v7.5q0 0.3-0.2 0.5-0.2 0.2-0.5 0.2h-2.7q-0.3 0-0.5-0.2-0.2-0.2-0.2-0.5v-11.4q0-0.3 0.2-0.5 0.2-0.2 0.5-0.2h2.7q0.3 0 0.5 0.2 0.2 0.2 0.2 0.5v0.7q1.2-0.8 2.3-1.3 1.1-0.4 2.9-0.4 0.3 0 0.5 0.2 0.2 0.2 0.2 0.5v1.8q0 0.3-0.2 0.5-0.2 0.2-0.5 0.2zm8.8 7.4l1.6-0.2h0.5q0.3 0 0.5 0.2 0.2 0.2 0.2 0.5v1.3q0 0.2-0.2 0.5-0.2 0.2-0.5 0.2-1.2 0.2-3.1 0.2-5.1 0-5.1-5.2v-11.1q0-0.3 0.2-0.5 0.2-0.2 0.5-0.2h2.7q0.3 0 0.5 0.2 0.2 0.2 0.2 0.5v3.9h3.2q0.3 0 0.5 0.2 0.3 0.2 0.3 0.6v1.3q0 0.4-0.3 0.6-0.2 0.2-0.5 0.2h-3.2v4.3q0 1.2 0.5 1.8 0.6 0.7 1.5 0.7zm3.9-12.8v-0.4q0-0.6 0.4-1 0.3-0.3 1-0.3h1.4q0.6 0 1 0.3 0.4 0.4 0.4 1v0.4q0 0.6-0.4 1-0.3 0.4-1 0.4h-1.4q-0.7 0-1-0.4-0.4-0.4-0.4-1zm0.1 14.6v-11.1q0-0.4 0.2-0.6 0.2-0.2 0.5-0.2h2.6q0.3 0 0.5 0.3 0.2 0.2 0.2 0.5v11.1q0 0.3-0.2 0.5-0.2 0.2-0.5 0.2h-2.6q-0.3 0-0.5-0.2-0.2-0.2-0.2-0.5zm13.1 0.9q-3.3 0-5.1-1.7-1.8-1.6-1.8-4.9 0-3.3 1.8-5 1.8-1.7 5.1-1.7 3.2 0 4.9 1.1 1.8 1 1.8 3 0 0.3-0.2 0.5-0.2 0.2-0.5 0.2h-1.8q-0.8 0-1.3-0.8-0.7-1.1-2.5-1.1-1.7 0-2.4 0.9-0.7 0.9-0.7 2.9 0 2 0.7 2.9 0.7 0.9 2.5 0.9 1.8 0 2.5-1.1 0.5-0.9 1.3-0.9h1.8q0.3 0 0.5 0.3 0.2 0.2 0.2 0.5 0 2-1.7 3-1.8 1-5.1 1zm8.8-0.9v-15.4q0-0.3 0.2-0.5 0.2-0.2 0.5-0.2h2.7q0.3 0 0.5 0.2 0.2 0.2 0.2 0.5v15.4q0 0.3-0.2 0.5-0.2 0.2-0.5 0.2h-2.7q-0.3 0-0.5-0.2-0.2-0.2-0.2-0.5zm8.1-0.8q-1.8-1.7-1.8-4.9 0-3.2 1.8-4.9 1.8-1.8 5-1.8 3.3 0 5.1 1.7 1.8 1.7 1.8 4.8v0.7q0 0.3-0.2 0.5-0.2 0.2-0.5 0.2h-8.9q0.1 1.5 0.8 2.1 0.8 0.7 2.3 0.7 1.6 0 2.2-0.7 0.5-0.7 1.4-0.7h1.7q0.3 0 0.5 0.2 0.2 0.2 0.2 0.5 0 3.3-6.4 3.3-3.2 0-5-1.7zm2.3-6.2h5.5q-0.2-2.7-2.8-2.7-2.6 0-2.7 2.7zm19.5 6.6l2.9-11.1q1.2-4.6 7.8-4.6h6.3q0.4 0 0.7 0.3 0.3 0.4 0.3 0.8v14.6q0 0.5-0.3 0.8-0.3 0.3-0.8 0.3h-2.2q-0.5 0-0.8-0.3-0.3-0.3-0.3-0.8v-3h-8.3l-0.8 3q-0.1 0.5-0.5 0.8-0.5 0.3-0.9 0.3h-2.3q-0.5 0-0.7-0.3-0.2-0.2-0.2-0.4 0-0.2 0.1-0.4zm7.2-10l-1.1 3.7h7.5v-6.1h-3.3q-1.2 0-2 0.7-0.8 0.6-1.1 1.7zm20.1 11.3q-3.3 0-5.1-1.7-1.8-1.6-1.8-4.9 0-3.3 1.8-5 1.8-1.7 5.1-1.7 3.2 0 4.9 1.1 1.8 1 1.8 3 0 0.3-0.2 0.5-0.2 0.2-0.5 0.2h-1.8q-0.8 0-1.3-0.8-0.7-1.1-2.5-1.1-1.7 0-2.4 0.9-0.7 0.9-0.7 2.9 0 2 0.7 2.9 0.7 0.9 2.5 0.9 1.8 0 2.5-1.1 0.5-0.9 1.3-0.9h1.8q0.3 0 0.5 0.3 0.2 0.2 0.2 0.5 0 2-1.7 3-1.8 1-5.1 1zm15 0q-3.3 0-5.1-1.7-1.8-1.6-1.8-4.9 0-3.3 1.8-5 1.8-1.7 5.1-1.7 3.2 0 4.9 1.1 1.8 1 1.8 3 0 0.3-0.2 0.5-0.2 0.2-0.5 0.2h-1.8q-0.8 0-1.3-0.8-0.7-1.1-2.5-1.1-1.7 0-2.4 0.9-0.7 0.9-0.7 2.9 0 2 0.7 2.9 0.7 0.9 2.5 0.9 1.8 0 2.5-1.1 0.5-0.9 1.3-0.9h1.8q0.3 0 0.5 0.3 0.2 0.2 0.2 0.5 0 2-1.7 3-1.8 1-5.1 1zm9.9-1.7q-1.8-1.7-1.8-4.9 0-3.2 1.8-4.9 1.8-1.8 5-1.8 3.3 0 5.1 1.7 1.8 1.7 1.8 4.8v0.7q0 0.3-0.2 0.5-0.2 0.2-0.5 0.2h-8.9q0.1 1.5 0.8 2.1 0.8 0.7 2.3 0.7 1.6 0 2.2-0.7 0.5-0.7 1.4-0.7h1.7q0.3 0 0.5 0.2 0.2 0.2 0.2 0.5 0 3.3-6.4 3.3-3.2 0-5-1.7zm2.3-6.2h5.5q-0.2-2.7-2.8-2.7-2.6 0-2.7 2.7zm11.6 7v-15.4q0-0.3 0.2-0.5 0.2-0.2 0.5-0.2h2.7q0.3 0 0.5 0.2 0.2 0.2 0.2 0.5v15.4q0 0.3-0.2 0.5-0.2 0.2-0.5 0.2h-2.7q-0.3 0-0.5-0.2-0.2-0.2-0.2-0.5zm8.1-0.8q-1.8-1.7-1.8-4.9 0-3.2 1.8-4.9 1.8-1.8 5-1.8 3.3 0 5.1 1.7 1.8 1.7 1.8 4.8v0.7q0 0.3-0.2 0.5-0.2 0.2-0.5 0.2h-8.9q0.1 1.5 0.8 2.1 0.8 0.7 2.3 0.7 1.6 0 2.2-0.7 0.5-0.7 1.4-0.7h1.7q0.3 0 0.5 0.2 0.2 0.2 0.2 0.5 0 3.3-6.4 3.3-3.2 0-5-1.7zm2.3-6.2h5.5q-0.2-2.7-2.8-2.7-2.6 0-2.7 2.7zm20.9-2.2h-0.4-1.8q-1.6 0-3 1.7v7.5q0 0.3-0.2 0.5-0.2 0.2-0.5 0.2h-2.7q-0.3 0-0.5-0.2-0.2-0.2-0.2-0.5v-11.4q0-0.3 0.2-0.5 0.2-0.2 0.5-0.2h2.7q0.3 0 0.5 0.2 0.2 0.2 0.2 0.5v0.7q1.2-0.8 2.3-1.3 1.1-0.4 2.9-0.4 0.3 0 0.5 0.2 0.2 0.2 0.2 0.5v1.8q0 0.3-0.2 0.5-0.2 0.2-0.5 0.2zm2.5 9.1q-1.5-1.1-1.5-3.1 0-2 1.5-3 1.6-1.1 4-1.1h3.9q0-1.3-0.6-1.9-0.5-0.5-2-0.5-1.4 0-2 0.7-0.6 0.7-1.4 0.7h-1.7q-0.4 0-0.6-0.2-0.2-0.2-0.2-0.5 0-3.4 6.4-3.4 2.8 0 4.5 1.3 1.7 1.2 1.7 3.8v7.3q0 0.3-0.2 0.5-0.2 0.2-0.5 0.2h-2.3q-0.3 0-0.5-0.2-0.2-0.2-0.2-0.5v-0.4q-1.9 1.3-4.3 1.3-2.4 0-4-1zm4.3-4.5q-0.8 0-1.3 0.4-0.4 0.4-0.4 1 0 0.7 0.4 1.1 0.5 0.4 1.4 0.4 1.8 0 3.5-1.1v-1.8zm17 2.8l1.6-0.2h0.5q0.3 0 0.5 0.2 0.2 0.2 0.2 0.5v1.3q0 0.2-0.2 0.5-0.2 0.2-0.5 0.2-1.2 0.2-3.1 0.2-5.1 0-5.1-5.2v-11.1q0-0.3 0.2-0.5 0.2-0.2 0.5-0.2h2.7q0.3 0 0.5 0.2 0.2 0.2 0.2 0.5v3.9h3.2q0.3 0 0.5 0.2 0.3 0.2 0.3 0.6v1.3q0 0.4-0.3 0.6-0.2 0.2-0.5 0.2h-3.2v4.3q0 1.2 0.5 1.8 0.6 0.7 1.5 0.7zm6 1q-1.8-1.6-1.8-4.9 0-3.3 1.8-5 1.8-1.7 5.3-1.7 3.4 0 5.2 1.7 1.9 1.7 1.9 5 0 3.3-1.9 4.9-1.8 1.7-5.2 1.7-3.5 0-5.3-1.7zm3-8q-0.7 1-0.7 3.1 0 2.1 0.7 3 0.7 1 2.3 1 1.5 0 2.3-1 0.7-0.9 0.7-3 0-2.1-0.7-3.1-0.8-0.9-2.3-0.9-1.6 0-2.3 0.9zm20.2-0.4h-0.4-1.8q-1.6 0-3 1.7v7.5q0 0.3-0.2 0.5-0.2 0.2-0.5 0.2h-2.7q-0.3 0-0.5-0.2-0.2-0.2-0.2-0.5v-11.4q0-0.3 0.2-0.5 0.2-0.2 0.5-0.2h2.7q0.3 0 0.5 0.2 0.2 0.2 0.2 0.5v0.7q1.2-0.8 2.3-1.3 1.1-0.4 2.9-0.4 0.3 0 0.5 0.2 0.2 0.2 0.2 0.5v1.8q0 0.3-0.2 0.5-0.2 0.2-0.5 0.2z"/>
</svg>