<svg version="1.2" xmlns="http://www.w3.org/2000/svg" viewBox="0 0 260 320" width="260" height="320">
	<style>
		.s0 { fill: #808080;stroke: #000000;stroke-miterlimit:100;stroke-width: 4.6 } 
		.s1 { fill: #00ff00;stroke: #000000;stroke-miterlimit:100;stroke-width: 2 } 
		.s2 { fill: #ffffff } 
	</style>
	<path id="Background" fill-rule="evenodd" class="s0" d="m0 0h260v320h-260z"/>
	<path id="Shape 2 copy 9" class="s1" d="m0 100h20v40h-20zm0 0h20v40h-20z"/>
	<path id="AWESOME Sink " class="s2" d="m25.1 167.5l2.9-11.1q1.2-4.6 7.8-4.6h6.3q0.5 0 0.7 0.3 0.3 0.4 0.3 0.8v14.6q0 0.5-0.3 0.8-0.3 0.3-0.8 0.3h-2.2q-0.5 0-0.8-0.3-0.3-0.3-0.3-0.8v-3h-8.3l-0.8 3q-0.1 0.5-0.5 0.8-0.4 0.3-0.9 0.3h-2.3q-0.5 0-0.7-0.3-0.2-0.2-0.2-0.4 0.1-0.2 0.1-0.4zm7.2-10l-1 3.7h7.4v-6.1h-3.3q-1.1 0-2 0.7-0.8 0.6-1.1 1.7zm18 9.9l-5.2-14.6q-0.1-0.2-0.1-0.3 0-0.2 0.2-0.5 0.2-0.2 0.7-0.2h2.5q0.5 0 0.9 0.3 0.4 0.3 0.5 0.8l3.1 9.3 2.9-9.3q0.3-1.1 1.4-1.1h2.1q1.1 0 1.4 1.1l2.9 9.3 3.1-9.3q0.1-0.5 0.5-0.8 0.4-0.3 0.9-0.3h2.5q0.4 0 0.6 0.2 0.2 0.3 0.2 0.5 0 0.1 0 0.3l-5.2 14.6q-0.5 1.2-1.7 1.2h-1.7q-1.3 0-1.7-1.2l-2.9-9-2.8 9q-0.4 1.2-1.7 1.2h-1.7q-1.2 0-1.7-1.2zm23.2 0.1v-14.6q0-0.5 0.3-0.8 0.3-0.3 0.8-0.3h13.5q0.5 0 0.8 0.3 0.3 0.4 0.3 0.8v1.1q0 0.5-0.3 0.8-0.3 0.3-0.8 0.3h-10.2v3.4h8.8q0.4 0 0.8 0.3 0.3 0.4 0.3 0.8v1.1q0 0.5-0.3 0.8-0.4 0.3-0.8 0.3h-8.8v3.5h10.2q0.4 0 0.7 0.3 0.4 0.3 0.4 0.8v1.1q0 0.5-0.4 0.8-0.3 0.3-0.8 0.3h-13.4q-0.5 0-0.8-0.3-0.3-0.3-0.3-0.8zm17-3.2q0-0.7 0.4-1 0.4-0.3 0.8-0.3h1.4q1.1 0 1.6 1.2 0.6 1.1 2.5 1.1l4.1 0.1q2.1 0 2.1-1.4 0-1-2.6-1.6-1.1-0.2-2.4-0.5-1.4-0.3-2.8-0.7-1.3-0.4-2.4-0.9-1.1-0.5-1.8-1.5-0.7-0.9-0.7-2.2 0-2.4 1.6-3.6 1.7-1.3 5.8-1.3l3 0.1q2.4 0 4.3 1.2 1.9 1.2 1.9 3.1 0 0.7-0.4 1-0.4 0.3-0.8 0.3h-1.3q-1.1 0-1.7-1.2-0.5-1.1-2.4-1.1l-3.6-0.1q-2 0-2 1.4 0 0.7 1.3 1.2 1.3 0.4 3.2 0.8 1.8 0.4 3.7 0.9 1.9 0.5 3.2 1.6 1.3 1.2 1.3 2.9 0 2.4-1.7 3.6-1.7 1.3-5.8 1.3l-3.5-0.1q-2.4 0-4.4-1.2-1.9-1.2-1.9-3.1zm34.5 2.6q-2.4 2.1-7.1 2.1-4.6 0-7-2.1-2.4-2.1-2.4-6.7 0-4.6 2.4-6.7 2.4-2.1 7-2.1 4.7 0 7.1 2.1 2.4 2.1 2.4 6.7 0 4.6-2.4 6.7zm-3.2-10.9q-1.2-1.4-3.9-1.4-2.6 0-3.8 1.4-1.2 1.4-1.2 4.2 0 2.8 1.2 4.2 1.2 1.4 3.8 1.4 2.7 0 3.9-1.4 1.2-1.4 1.2-4.2 0-2.8-1.2-4.2zm8.7 11.5v-14.6q0-0.4 0.3-0.8 0.3-0.3 0.8-0.3h4.7q0.5 0 0.9 0.3 0.4 0.4 0.6 0.8l3.4 10 3.5-10q0.1-0.4 0.5-0.8 0.4-0.3 0.9-0.3h4.8q0.4 0 0.7 0.3 0.3 0.4 0.3 0.8v14.6q0 0.5-0.3 0.8-0.3 0.3-0.8 0.3h-2.1q-0.4 0-0.8-0.3-0.3-0.3-0.3-0.8v-11.5l-4.1 11.5q-0.2 0.5-0.6 0.8-0.4 0.3-0.9 0.3h-1.6q-0.5 0-0.9-0.3-0.4-0.3-0.6-0.8l-4.1-11.5v11.5q0 0.5-0.3 0.8-0.3 0.3-0.8 0.3h-2.1q-0.5 0-0.8-0.3-0.3-0.3-0.3-0.8zm25 0v-14.6q0-0.5 0.3-0.8 0.3-0.3 0.8-0.3h13.5q0.5 0 0.8 0.3 0.3 0.4 0.3 0.8v1.1q0 0.5-0.3 0.8-0.3 0.3-0.8 0.3h-10.2v3.4h8.8q0.4 0 0.8 0.3 0.3 0.4 0.3 0.8v1.1q0 0.5-0.3 0.8-0.4 0.3-0.8 0.3h-8.8v3.5h10.2q0.4 0 0.7 0.3 0.4 0.3 0.4 0.8v1.1q0 0.5-0.4 0.8-0.3 0.3-0.8 0.3h-13.4q-0.5 0-0.8-0.3-0.3-0.3-0.3-0.8zm25-3.2q0-0.7 0.4-1 0.4-0.3 0.8-0.3h1.4q1.1 0 1.6 1.2 0.6 1.1 2.5 1.1l4.1 0.1q2.1 0 2.1-1.4 0-1-2.6-1.6-1.1-0.2-2.4-0.5-1.4-0.3-2.8-0.7-1.3-0.4-2.4-0.9-1.1-0.5-1.8-1.5-0.7-0.9-0.7-2.2 0-2.4 1.6-3.6 1.7-1.3 5.8-1.3l3 0.1q2.4 0 4.3 1.2 1.9 1.2 1.9 3.1 0 0.7-0.4 1-0.4 0.3-0.8 0.3h-1.3q-1.1 0-1.7-1.2-0.5-1.1-2.4-1.1l-3.6-0.1q-2 0-2 1.4 0 0.7 1.3 1.2 1.3 0.4 3.2 0.8 1.8 0.4 3.7 0.9 1.9 0.5 3.2 1.6 1.3 1.2 1.3 2.9 0 2.4-1.7 3.6-1.7 1.3-5.8 1.3l-3.5-0.1q-2.4 0-4.4-1.2-1.9-1.2-1.9-3.1zm19.7-11v-0.4q0-0.6 0.4-1 0.4-0.3 1-0.3h1.4q0.7 0 1 0.3 0.4 0.4 0.4 1v0.4q0 0.6-0.4 1-0.3 0.4-1 0.4h-1.4q-0.6 0-1-0.4-0.4-0.4-0.4-1zm0.1 14.6v-11.1q0-0.4 0.2-0.6 0.2-0.2 0.5-0.2h2.6q0.3 0 0.5 0.3 0.2 0.2 0.2 0.5v11.1q0 0.3-0.2 0.5-0.2 0.2-0.5 0.2h-2.6q-0.3 0-0.5-0.2-0.2-0.2-0.2-0.5zm6.9 0v-11.4q0-0.3 0.2-0.5 0.3-0.2 0.6-0.2h2.6q0.3 0 0.5 0.2 0.2 0.2 0.2 0.5v0.7q2-1.7 4.3-1.7 2.3 0 3.7 1.4 1.4 1.4 1.4 4.3v6.7q0 0.3-0.2 0.5-0.2 0.2-0.5 0.2h-2.6q-0.3 0-0.5-0.2-0.2-0.2-0.2-0.5v-6.7q0-2.8-2.3-2.8-1.4 0-3.1 1.6v7.9q0 0.3-0.2 0.5-0.2 0.2-0.5 0.2h-2.6q-0.3 0-0.6-0.2-0.2-0.2-0.2-0.5zm29 0.2q0 0.5-0.6 0.5h-2.2q-1.2 0-1.8-1.1l-1.5-2.4q-1-1.6-2.8-1.6v4.4q0 0.3-0.2 0.5-0.2 0.2-0.5 0.2h-2.6q-0.4 0-0.6-0.2-0.2-0.2-0.2-0.5v-15.4q0-0.3 0.2-0.5 0.3-0.2 0.6-0.2h2.6q0.3 0 0.5 0.2 0.2 0.2 0.2 0.5v8.3q2 0 2.8-1.5l1.1-2.4q0.2-0.5 0.7-0.8 0.5-0.3 1-0.3h2.2q0.6 0 0.6 0.4 0 0.3-0.2 0.7l-1.5 3.2q-0.4 0.8-1.1 1.3-0.6 0.6-1.4 0.8 1.4 0.4 2.5 2.1l2 3.2q0.2 0.3 0.2 0.6z"/>
</svg>