<svg version="1.2" xmlns="http://www.w3.org/2000/svg" viewBox="0 0 400 200" width="400" height="200">
	<style>
		.s0 { fill: #808080;stroke: #000000;stroke-miterlimit:100;stroke-width: 4.6 } 
		.s1 { fill: #00ff00;stroke: #000000;stroke-miterlimit:100;stroke-width: 2 } 
		.s2 { fill: #ff0000;stroke: #000000;stroke-miterlimit:100;stroke-width: 2 } 
		.s3 { fill: #ffffff } 
	</style>
	<path id="Shape 3" fill-rule="evenodd" class="s0" d="m400 200h-400v-200h400z"/>
	<path id="Shape 2" class="s1" d="m400 160h-20v-40h20zm0 0h-20v-40h20z"/>
	<path id="Shape 2 copy 2" class="s2" d="m20 160h-20v-40h20zm0 0h-20v-40h20z"/>
	<path id="Shape 2 copy 3" class="s2" d="m20 80h-20v-40h20zm0 0h-20v-40h20z"/>
	<path id="Shape 2 copy" class="s1" d="m400 80h-20v-40h20zm0 0h-20v-40h20z"/>
	<path id="Refinery" class="s3" d="m162.2 106.2q0 0.5-0.6 0.5h-2.8q-0.4 0-1-0.3-0.5-0.3-0.8-0.8l-2-3.1q-1.2-1.9-2.9-1.9h-2.9v5q0 0.5-0.3 0.8-0.4 0.3-0.8 0.3h-2.2q-0.5 0-0.8-0.3-0.3-0.3-0.3-0.8v-14.6q0-0.4 0.3-0.8 0.3-0.3 0.8-0.3h9.6q2.7 0 4.4 1.4 1.8 1.5 1.8 3.9 0 3.4-4.5 4.3 0.7 0.3 1.3 0.9 0.6 0.6 1.4 1.8l2.1 3.4q0.2 0.3 0.2 0.6zm-13-13v4h5q1.2 0 2.1-0.4 0.9-0.5 0.9-1.6 0-1-0.9-1.5-0.9-0.5-2.1-0.5zm15.4 12q-1.8-1.7-1.8-4.9 0-3.2 1.8-4.9 1.8-1.8 5.1-1.8 3.2 0 5 1.7 1.8 1.7 1.8 4.8v0.7q0 0.3-0.2 0.5-0.2 0.2-0.5 0.2h-8.9q0.2 1.5 0.9 2.1 0.7 0.7 2.2 0.7 1.6 0 2.2-0.7 0.5-0.7 1.4-0.7h1.7q0.4 0 0.5 0.2 0.3 0.2 0.3 0.5 0 3.3-6.4 3.3-3.3 0-5.1-1.7zm2.3-6.2h5.5q-0.1-2.7-2.7-2.7-2.6 0-2.8 2.7zm21.5-6.4h-0.5l-1.6-0.2q-2.3 0-3 0.7-0.7 0.6-0.7 2.6v0.1h4.2q0.3 0 0.5 0.3 0.3 0.2 0.3 0.5v1.4q0 0.3-0.3 0.5-0.2 0.2-0.5 0.2h-4.2v7.3q0 0.3-0.2 0.5-0.2 0.2-0.5 0.2h-2.7q-0.3 0-0.5-0.2-0.2-0.2-0.2-0.5v-10.3q0-3.3 1.5-4.7 1.5-1.3 5.2-1.3 2 0 2.7 0.1 0.8 0.1 1 0.4 0.2 0.2 0.2 0.4v1.3q0 0.3-0.2 0.5-0.2 0.2-0.5 0.2zm2.1-1.2v-0.4q0-0.6 0.4-1 0.3-0.3 1-0.3h1.4q0.7 0 1 0.3 0.4 0.4 0.4 1v0.4q0 0.6-0.4 1-0.3 0.4-1 0.4h-1.4q-0.6 0-1-0.4-0.4-0.4-0.4-1zm0.1 14.6v-11.1q0-0.4 0.2-0.6 0.2-0.2 0.5-0.2h2.6q0.3 0 0.5 0.3 0.2 0.2 0.2 0.5v11.1q0 0.3-0.2 0.5-0.2 0.2-0.5 0.2h-2.6q-0.3 0-0.5-0.2-0.2-0.2-0.2-0.5zm6.9 0v-11.4q0-0.3 0.2-0.5 0.2-0.2 0.5-0.2h2.7q0.3 0 0.5 0.2 0.2 0.2 0.2 0.5v0.7q2-1.7 4.3-1.7 2.3 0 3.7 1.4 1.4 1.4 1.4 4.3v6.7q0 0.3-0.2 0.5-0.2 0.2-0.5 0.2h-2.6q-0.3 0-0.5-0.2-0.2-0.2-0.2-0.5v-6.7q0-2.8-2.3-2.8-1.4 0-3.1 1.6v7.9q0 0.3-0.2 0.5-0.2 0.2-0.5 0.2h-2.7q-0.3 0-0.5-0.2-0.2-0.2-0.2-0.5zm17.1-0.8q-1.8-1.7-1.8-4.9 0-3.2 1.8-4.9 1.8-1.8 5.1-1.8 3.2 0 5 1.7 1.8 1.7 1.8 4.8v0.7q0 0.3-0.2 0.5-0.2 0.2-0.5 0.2h-8.9q0.2 1.5 0.9 2.1 0.7 0.7 2.2 0.7 1.6 0 2.2-0.7 0.5-0.7 1.4-0.7h1.7q0.4 0 0.5 0.2 0.3 0.2 0.3 0.5 0 3.3-6.4 3.3-3.3 0-5.1-1.7zm2.3-6.2h5.5q-0.1-2.7-2.7-2.7-2.6 0-2.8 2.7zm20.9-2.2h-0.4-1.8q-1.6 0-3 1.7v7.5q0 0.3-0.2 0.5-0.2 0.2-0.5 0.2h-2.7q-0.3 0-0.5-0.2-0.2-0.2-0.2-0.5v-11.4q0-0.3 0.2-0.5 0.2-0.2 0.5-0.2h2.7q0.3 0 0.5 0.2 0.2 0.2 0.2 0.5v0.7q1.2-0.8 2.3-1.3 1.1-0.4 2.9-0.4 0.3 0 0.5 0.2 0.2 0.2 0.2 0.5v1.8q0 0.3-0.2 0.5-0.2 0.2-0.5 0.2zm4.8 11.1h0.4l1.6 0.2q1.6 0 2.3-2.4-2 0-3.4-1.2-1.3-1.2-2.3-4.3l-1.7-5.6q0-0.1 0-0.3 0-0.1 0.1-0.3 0.2-0.1 0.5-0.1h2.4q0.3 0 0.6 0.2 0.4 0.2 0.5 0.6l1.5 4.9q0.6 1.9 1.2 2.6 0.5 0.7 1.4 0.7l2.3-8.2q0.1-0.4 0.4-0.6 0.2-0.2 0.6-0.2h2.4q0.3 0 0.5 0.1 0.1 0.2 0.1 0.4 0 0.1 0 0.2l-3.1 10.9q-0.8 2.9-2 4.2-1.2 1.2-3.1 1.2-1.9 0-2.7-0.1-0.8-0.2-1-0.4-0.2-0.2-0.2-0.5v-1.3q0-0.3 0.2-0.5 0.2-0.2 0.5-0.2z"/>
</svg>