<svg version="1.2" xmlns="http://www.w3.org/2000/svg" viewBox="0 0 160 160" width="160" height="160">
	<style>
		.s0 { fill: #808080;stroke: #000000;stroke-miterlimit:100;stroke-width: 4.6 } 
		.s1 { fill: #ff0000;stroke: #000000;stroke-miterlimit:100;stroke-width: 2 } 
		.s2 { fill: #00ff00;stroke: #000000;stroke-miterlimit:100;stroke-width: 2 } 
		.s3 { fill: #ffffff } 
	</style>
	<path id="Shape 1" fill-rule="evenodd" class="s0" d="m0 0h160v160h-160z"/>
	<path id="output" fill-rule="evenodd" class="s1" d="m140 60h20v40h-20z"/>
	<path id="input copy" fill-rule="evenodd" class="s2" d="m0 60h20v40h-20z"/>
	<path id="Packager" class="s3" d="m19.7 84.9v-14.6q0-0.4 0.3-0.8 0.3-0.3 0.8-0.3h8.9q7.1 0 7.1 6.5 0 6.6-7.1 6.6h-5.6v2.6q0 0.5-0.3 0.8-0.4 0.3-0.8 0.3h-2.2q-0.5 0-0.8-0.3-0.3-0.3-0.3-0.8zm4.4-12.4v6.4h4.3q1.9 0 3-0.6 1-0.7 1-2.6 0-1.9-1-2.5-1.1-0.7-3-0.7zm15.1 12.7q-1.5-1.1-1.5-3.1 0-2 1.5-3 1.6-1.1 4-1.1h3.9q0-1.3-0.5-1.9-0.6-0.5-2.1-0.5-1.4 0-2 0.7-0.6 0.7-1.4 0.7h-1.7q-0.4 0-0.6-0.2-0.2-0.2-0.2-0.5 0-3.4 6.4-3.4 2.8 0 4.5 1.3 1.7 1.2 1.7 3.8v7.3q0 0.3-0.2 0.5-0.2 0.2-0.5 0.2h-2.3q-0.3 0-0.5-0.2-0.2-0.2-0.2-0.5v-0.4q-1.9 1.3-4.3 1.3-2.4 0-4-1zm4.3-4.5q-0.8 0-1.3 0.4-0.4 0.4-0.4 1 0 0.7 0.5 1.1 0.4 0.4 1.3 0.4 1.9 0 3.5-1.1v-1.8zm17.1 5.5q-3.3 0-5.1-1.7-1.8-1.6-1.8-4.9 0-3.3 1.8-5 1.8-1.7 5.1-1.7 3.2 0 4.9 1.1 1.8 1 1.8 3 0 0.3-0.2 0.5-0.2 0.2-0.5 0.2h-1.8q-0.8 0-1.3-0.8-0.7-1.1-2.5-1.1-1.7 0-2.4 0.9-0.7 0.9-0.7 2.9 0 2 0.7 2.9 0.7 0.9 2.5 0.9 1.8 0 2.5-1.1 0.5-0.9 1.3-0.9h1.8q0.3 0 0.5 0.3 0.2 0.2 0.2 0.5 0 2-1.7 3-1.8 1-5.1 1zm21.8-0.7q0 0.5-0.6 0.5h-2.3q-1.1 0-1.8-1.1l-1.4-2.4q-1-1.6-2.8-1.6v4.4q0 0.3-0.2 0.5-0.2 0.2-0.5 0.2h-2.7q-0.3 0-0.5-0.2-0.2-0.2-0.2-0.5v-15.4q0-0.3 0.2-0.5 0.2-0.2 0.5-0.2h2.7q0.3 0 0.5 0.2 0.2 0.2 0.2 0.5v8.3q2 0 2.8-1.5l1.1-2.4q0.2-0.5 0.7-0.8 0.4-0.3 1-0.3h2.2q0.6 0 0.6 0.4 0 0.3-0.2 0.7l-1.5 3.2q-0.4 0.8-1.1 1.3-0.7 0.6-1.4 0.8 1.4 0.4 2.5 2.1l2 3.2q0.2 0.3 0.2 0.6zm1.8-0.3q-1.5-1.1-1.5-3.1 0-2 1.5-3 1.6-1.1 4-1.1h3.9q0-1.3-0.6-1.9-0.5-0.5-2-0.5-1.4 0-2 0.7-0.6 0.7-1.4 0.7h-1.7q-0.4 0-0.6-0.2-0.2-0.2-0.2-0.5 0-3.4 6.4-3.4 2.8 0 4.5 1.3 1.7 1.2 1.7 3.8v7.3q0 0.3-0.2 0.5-0.2 0.2-0.5 0.2h-2.3q-0.3 0-0.5-0.2-0.2-0.2-0.2-0.5v-0.4q-1.9 1.3-4.3 1.3-2.4 0-4-1zm4.3-4.5q-0.8 0-1.3 0.4-0.4 0.4-0.4 1 0 0.7 0.4 1.1 0.5 0.4 1.4 0.4 1.8 0 3.5-1.1v-1.8zm16.1 4.3q-2.6 0-4.3-1.6-1.6-1.6-1.6-4.4 0-2.9 1.9-4.5 1.8-1.6 5.3-1.6 1.7 0 3.5 0.4 1.8 0.4 2.8 0.9v10.9q0 2.6-1.7 3.9-1.8 1.2-4.9 1.2-3.1 0-4.8-0.8-1.7-0.8-1.7-2.6 0-0.3 0.2-0.5 0.3-0.2 0.6-0.2h1.7q0.9 0 1.4 0.6 0.6 0.8 2.2 0.8 1.7 0 2.3-0.5 0.6-0.5 0.6-1.9v-0.6q-1.9 0.5-3.5 0.5zm1-9.2q-2.7-0.1-2.7 3.2 0 3.2 2.7 3.2 1.1 0 2.5-0.4v-5.8q-1-0.3-2.5-0.2zm10.9 8.7q-1.8-1.7-1.8-4.9 0-3.2 1.8-4.9 1.8-1.8 5-1.8 3.3 0 5.1 1.7 1.8 1.7 1.8 4.8v0.7q0 0.3-0.2 0.5-0.2 0.2-0.6 0.2h-8.8q0.1 1.5 0.8 2.1 0.8 0.7 2.3 0.7 1.6 0 2.2-0.7 0.5-0.7 1.4-0.7h1.7q0.3 0 0.5 0.2 0.2 0.2 0.2 0.5 0 3.3-6.4 3.3-3.2 0-5-1.7zm2.3-6.2h5.4q-0.1-2.7-2.7-2.7-2.6 0-2.7 2.7zm20.9-2.2h-0.4-1.8q-1.6 0-3 1.7v7.5q0 0.3-0.2 0.5-0.2 0.2-0.5 0.2h-2.7q-0.3 0-0.5-0.2-0.2-0.2-0.2-0.5v-11.4q0-0.3 0.2-0.5 0.2-0.2 0.5-0.2h2.7q0.3 0 0.5 0.2 0.2 0.2 0.2 0.5v0.7q1.2-0.8 2.3-1.3 1.1-0.4 2.9-0.4 0.3 0 0.5 0.2 0.2 0.2 0.2 0.5v1.8q0 0.3-0.2 0.5-0.2 0.2-0.5 0.2z"/>
</svg>