<svg version="1.2" xmlns="http://www.w3.org/2000/svg" viewBox="0 0 160 200" width="160" height="200">
	<style>
		.s0 { fill: #808080;stroke: #000000;stroke-miterlimit:100;stroke-width: 4.6 } 
		.s1 { fill: #00ff00;stroke: #000000;stroke-miterlimit:100;stroke-width: 2 } 
		.s2 { fill: #ff0000;stroke: #000000;stroke-miterlimit:100;stroke-width: 2 } 
		.s3 { fill: #ffffff } 
	</style>
	<path id="Shape 1" fill-rule="evenodd" class="s0" d="m0 200v-200h160v200z"/>
	<path id="Shape 2" fill-rule="evenodd" class="s1" d="m100 200h-40v-20h40z"/>
	<path id="Shape 2 copy" fill-rule="evenodd" class="s2" d="m100 20h-40v-20h40z"/>
	<path id="Constructor" class="s3" d="m15.3 106.2q-1.8-1.7-1.8-5.3 0-3.6 1.8-5.3 1.8-1.8 5.4-1.8h2.2q2.2 0 3.9 1.2 1.7 1.1 1.7 3.1 0 0.6-0.3 0.9-0.3 0.2-0.7 0.2h-1.1q-0.9 0-1.4-1.1-0.7-1.5-2.4-1.5h-1.8q-2.1 0-2.9 0.9-0.7 0.9-0.7 3.4 0 2.5 0.7 3.4 0.8 0.9 2.9 0.9h2q1.7 0 2.4-1.5 0.5-1.1 1.4-1.1h1.1q0.5 0 0.8 0.3 0.2 0.4 0.2 0.8 0 2-1.7 3.1-1.7 1.2-3.9 1.2h-2.4q-3.6 0-5.4-1.8zm15.7 0.5q-1.5-1.4-1.5-4.2 0-2.7 1.5-4.1 1.5-1.4 4.4-1.4 2.9 0 4.4 1.4 1.5 1.4 1.5 4.1 0 2.8-1.5 4.2-1.5 1.4-4.4 1.4-2.9 0-4.4-1.4zm2.5-6.7q-0.6 0.8-0.6 2.5 0 1.8 0.6 2.6 0.6 0.8 1.9 0.8 1.3 0 1.9-0.8 0.6-0.8 0.6-2.6 0-1.7-0.6-2.5-0.6-0.8-1.9-0.8-1.3 0-1.9 0.8zm9.6 7.3v-9.5q0-0.3 0.2-0.4 0.1-0.2 0.4-0.2h2.2q0.2 0 0.4 0.2 0.2 0.1 0.2 0.4v0.6q1.7-1.4 3.6-1.4 1.9 0 3.1 1.2 1.1 1.1 1.1 3.5v5.6q0 0.3-0.1 0.4-0.2 0.2-0.5 0.2h-2.1q-0.3 0-0.5-0.2-0.1-0.1-0.1-0.4v-5.6q0-2.3-1.9-2.3-1.2 0-2.6 1.4v6.5q0 0.3-0.2 0.4-0.2 0.2-0.4 0.2h-2.2q-0.3 0-0.4-0.2-0.2-0.1-0.2-0.4zm13.4-7.1q0-3.2 5.1-3.2 5.3 0 5.3 2.8 0 0.3-0.1 0.4-0.2 0.2-0.5 0.2h-1.4q-0.7 0-1.2-0.6-0.5-0.6-1.9-0.6-1.9 0-1.9 1 0 0.4 0.7 0.7 0.8 0.3 1.9 0.5 1.1 0.2 2.2 0.6 1 0.3 1.8 1.1 0.8 0.7 0.8 1.8 0 3.2-5.4 3.2-5.4 0-5.4-2.8 0-0.3 0.2-0.4 0.2-0.2 0.4-0.2h1.5q0.7 0 1.2 0.6 0.4 0.6 1.8 0.6 2.3 0 2.3-1 0-0.4-0.8-0.7-0.7-0.3-1.8-0.5-1.1-0.2-2.2-0.6-1.1-0.3-1.8-1.1-0.8-0.7-0.8-1.8zm17.7 5.6l1.3-0.1h0.4q0.3 0 0.4 0.1 0.2 0.2 0.2 0.5v1q0 0.2-0.2 0.4-0.1 0.2-0.4 0.2-1 0.2-2.6 0.2-4.2 0-4.2-4.4v-9.2q0-0.3 0.2-0.4 0.1-0.2 0.4-0.2h2.2q0.2 0 0.4 0.2 0.2 0.1 0.2 0.4v3.3h2.7q0.3 0 0.4 0.1 0.2 0.2 0.2 0.5v1.1q0 0.3-0.2 0.5-0.1 0.1-0.4 0.1h-2.7v3.6q0 1 0.4 1.5 0.5 0.6 1.3 0.6zm11.6-6.1h-0.3l-1.5-0.1q-1.3 0-2.5 1.5v6.2q0 0.3-0.2 0.4-0.2 0.2-0.4 0.2h-2.2q-0.3 0-0.4-0.2-0.2-0.1-0.2-0.4v-9.5q0-0.3 0.2-0.4 0.1-0.2 0.4-0.2h2.2q0.2 0 0.4 0.2 0.2 0.1 0.2 0.4v0.6q1-0.7 1.9-1 0.9-0.4 2.4-0.4 0.3 0 0.4 0.2 0.2 0.1 0.2 0.4v1.5q0 0.2-0.2 0.4-0.1 0.2-0.4 0.2zm2.3 3.7v-5.6q0-0.3 0.2-0.4 0.1-0.2 0.4-0.2h2.2q0.2 0 0.4 0.2 0.2 0.1 0.2 0.4v5.6q0 2.3 1.8 2.3 1.3 0 2.7-1.4v-6.5q0-0.3 0.1-0.4 0.2-0.2 0.5-0.2h2.1q0.3 0 0.5 0.2 0.1 0.1 0.1 0.4v9.5q0 0.3-0.1 0.4-0.2 0.2-0.5 0.2h-2.1q-0.3 0-0.5-0.2-0.1-0.1-0.1-0.4v-0.6q-1.7 1.4-3.6 1.4-1.9 0-3.1-1.2-1.2-1.1-1.2-3.5zm18.2 4.7q-2.8 0-4.3-1.4-1.5-1.4-1.5-4.1 0-2.8 1.5-4.2 1.5-1.4 4.2-1.4 2.7 0 4.2 0.9 1.4 0.8 1.4 2.5 0 0.3-0.2 0.4-0.1 0.2-0.4 0.2h-1.4q-0.7 0-1.2-0.7-0.5-0.9-2-0.9-1.5 0-2 0.7-0.6 0.8-0.6 2.4 0 1.7 0.6 2.5 0.6 0.7 2.1 0.7 1.5 0 2-0.9 0.5-0.7 1.2-0.7h1.4q0.3 0 0.4 0.2 0.2 0.1 0.2 0.4 0 1.7-1.4 2.5-1.5 0.9-4.2 0.9zm12.9-2.3l1.3-0.1h0.4q0.3 0 0.4 0.1 0.2 0.2 0.2 0.5v1q0 0.2-0.2 0.4-0.1 0.2-0.4 0.2-1 0.2-2.6 0.2-4.2 0-4.2-4.4v-9.2q0-0.3 0.2-0.4 0.1-0.2 0.4-0.2h2.2q0.2 0 0.4 0.2 0.2 0.1 0.2 0.4v3.3h2.7q0.3 0 0.4 0.1 0.2 0.2 0.2 0.5v1.1q0 0.3-0.2 0.5-0.1 0.1-0.4 0.1h-2.7v3.6q0 1 0.4 1.5 0.5 0.6 1.3 0.6zm4.8 0.9q-1.5-1.4-1.5-4.2 0-2.7 1.5-4.1 1.5-1.4 4.4-1.4 2.9 0 4.4 1.4 1.5 1.4 1.5 4.1 0 2.8-1.5 4.2-1.5 1.4-4.4 1.4-2.9 0-4.4-1.4zm2.5-6.7q-0.6 0.8-0.6 2.5 0 1.8 0.6 2.6 0.6 0.8 1.9 0.8 1.3 0 1.9-0.8 0.6-0.8 0.6-2.6 0-1.7-0.6-2.5-0.6-0.8-1.9-0.8-1.3 0-1.9 0.8zm17.3-0.3h-0.3l-1.5-0.1q-1.3 0-2.5 1.5v6.2q0 0.3-0.2 0.4-0.2 0.2-0.4 0.2h-2.2q-0.3 0-0.4-0.2-0.2-0.1-0.2-0.4v-9.5q0-0.3 0.2-0.4 0.1-0.2 0.4-0.2h2.2q0.2 0 0.4 0.2 0.2 0.1 0.2 0.4v0.6q1-0.7 1.9-1 0.9-0.4 2.4-0.4 0.3 0 0.4 0.2 0.2 0.1 0.2 0.4v1.5q0 0.2-0.2 0.4-0.1 0.2-0.4 0.2z"/>
</svg>